<svg xmlns="http://www.w3.org/2000/svg" width="783.521728515625" height="673.66796875" viewBox="-261.1981201171875 -276.4235534667969 783.521728515625 673.66796875"><title>Neo4j Graph Visualization</title><desc>Created using Neo4j (http://www.neo4j.com/)</desc><g class="layer relationships"><g class="relationship" transform="translate(282.7061503003703 359.71265673243465) rotate(271.9311862802614)"><path class="outline" fill="#A5ABB6" stroke="none" d="M 25 0.5 L 27.731420444951276 0.5 L 27.731420444951276 -0.5 L 25 -0.5 Z M 79.07907669495128 0.5 L 81.81049713990255 0.5 L 81.81049713990255 3.5 L 88.81049713990255 0 L 81.81049713990255 -3.5 L 81.81049713990255 -0.5 L 79.07907669495128 -0.5 Z"/><text text-anchor="middle" pointer-events="none" font-size="8px" fill="#000000" x="53.405248569951276" y="3" font-family="sans-serif">HAS_SUB…</text></g><g class="relationship" transform="translate(286.5414704417824 245.9668015172021) rotate(212.5240272550135)"><path class="outline" fill="#A5ABB6" stroke="none" d="M 25 0.5 L 26.91148478127824 0.5 L 26.91148478127824 -0.5 L 25 -0.5 Z M 84.03648478127823 0.5 L 85.94796956255648 0.5 L 85.94796956255648 3.5 L 92.94796956255648 0 L 85.94796956255648 -3.5 L 85.94796956255648 -0.5 L 84.03648478127823 -0.5 Z"/><text text-anchor="middle" pointer-events="none" font-size="8px" fill="#000000" x="55.47398478127824" y="3" transform="rotate(180 55.47398478127824 0)" font-family="sans-serif">HAS_SUBC…</text></g><g class="relationship" transform="translate(286.5414704417824 245.9668015172021) rotate(331.50450755776)"><path class="outline" fill="#A5ABB6" stroke="none" d="M 25 0.5 L 26.34737714041738 0.5 L 26.34737714041738 -0.5 L 25 -0.5 Z M 83.47237714041738 0.5 L 84.81975428083476 0.5 L 84.81975428083476 3.5 L 91.81975428083476 0 L 84.81975428083476 -3.5 L 84.81975428083476 -0.5 L 83.47237714041738 -0.5 Z"/><text text-anchor="middle" pointer-events="none" font-size="8px" fill="#000000" x="54.90987714041738" y="3" font-family="sans-serif">HAS_SUBC…</text></g><g class="relationship" transform="translate(389.209054568387 190.23330925410073) rotate(352.47150475139847)"><path class="outline" fill="#A5ABB6" stroke="none" d="M 25 0.5 L 26.004102061403053 0.5 L 26.004102061403053 -0.5 L 25 -0.5 Z M 72.01582081140305 0.5 L 73.0199228728061 0.5 L 73.0199228728061 3.5 L 80.0199228728061 0 L 73.0199228728061 -3.5 L 73.0199228728061 -0.5 L 72.01582081140305 -0.5 Z"/><text text-anchor="middle" pointer-events="none" font-size="8px" fill="#000000" x="49.00996143640305" y="3" font-family="sans-serif">HAS_SU…</text></g><g class="relationship" transform="translate(389.209054568387 190.23330925410073) rotate(285.16786671514717)"><path class="outline" fill="#A5ABB6" stroke="none" d="M 25 0.5 L 25.934719375019384 0.5 L 25.934719375019384 -0.5 L 25 -0.5 Z M 89.72378187501938 0.5 L 90.65850125003877 0.5 L 90.65850125003877 3.5 L 97.65850125003877 0 L 90.65850125003877 -3.5 L 90.65850125003877 -0.5 L 89.72378187501938 -0.5 Z"/><text text-anchor="middle" pointer-events="none" font-size="8px" fill="#000000" x="57.829250625019384" y="3" font-family="sans-serif">HAS_PRODU…</text></g><g class="relationship" transform="translate(187.09174654070586 182.55169338097483) rotate(507.0370320122173)"><path class="outline" fill="#A5ABB6" stroke="none" d="M 25 0.5 L 25.060481193454933 0.5 L 25.060481193454933 -0.5 L 25 -0.5 Z M 91.51360619345493 0.5 L 91.57408738690987 0.5 L 91.57408738690987 3.5 L 98.57408738690987 0 L 91.57408738690987 -3.5 L 91.57408738690987 -0.5 L 91.51360619345493 -0.5 Z"/><text text-anchor="middle" pointer-events="none" font-size="8px" fill="#000000" x="58.28704369345493" y="3" transform="rotate(180 58.28704369345493 0)" font-family="sans-serif">HAS_PRODUCT</text></g><g class="relationship" transform="translate(187.09174654070586 182.55169338097483) rotate(282.12978879203774)"><path class="outline" fill="#A5ABB6" stroke="none" d="M 25 0.5 L 26.814792996158033 0.5 L 26.814792996158033 -0.5 L 25 -0.5 Z M 98.90463674615803 0.5 L 100.71942974231607 0.5 L 100.71942974231607 3.5 L 107.71942974231607 0 L 100.71942974231607 -3.5 L 100.71942974231607 -0.5 L 98.90463674615803 -0.5 Z"/><text text-anchor="middle" pointer-events="none" font-size="8px" fill="#000000" x="62.85971487115803" y="3" font-family="sans-serif">HAS_SUBCATE…</text></g><g class="relationship" transform="translate(187.09174654070586 182.55169338097483) rotate(315.89421085933213)"><path class="outline" fill="#A5ABB6" stroke="none" d="M 25 0.5 L 26.882860321821802 0.5 L 26.882860321821802 -0.5 L 25 -0.5 Z M 84.0078603218218 0.5 L 85.8907206436436 0.5 L 85.8907206436436 3.5 L 92.8907206436436 0 L 85.8907206436436 -3.5 L 85.8907206436436 -0.5 L 84.0078603218218 -0.5 Z"/><text text-anchor="middle" pointer-events="none" font-size="8px" fill="#000000" x="55.4453603218218" y="3" font-family="sans-serif">HAS_SUBC…</text></g><g class="relationship" transform="translate(187.09174654070586 182.55169338097483) rotate(213.15644016022384)"><path class="outline" fill="#A5ABB6" stroke="none" d="M 25 0.5 L 27.368624206987306 0.5 L 27.368624206987306 -0.5 L 25 -0.5 Z M 79.6029992069873 0.5 L 81.97162341397461 0.5 L 81.97162341397461 3.5 L 88.97162341397461 0 L 81.97162341397461 -3.5 L 81.97162341397461 -0.5 L 79.6029992069873 -0.5 Z"/><text text-anchor="middle" pointer-events="none" font-size="8px" fill="#000000" x="53.485811706987306" y="3" transform="rotate(180 53.485811706987306 0)" font-family="sans-serif">HAS_PRO…</text></g><g class="relationship" transform="translate(187.09174654070586 182.55169338097483) rotate(252.0535400987029)"><path class="outline" fill="#A5ABB6" stroke="none" d="M 25 0.5 L 27.983067888086396 0.5 L 27.983067888086396 -0.5 L 25 -0.5 Z M 94.4361928880864 0.5 L 97.41926077617279 0.5 L 97.41926077617279 3.5 L 104.41926077617279 0 L 97.41926077617279 -3.5 L 97.41926077617279 -0.5 L 94.4361928880864 -0.5 Z"/><text text-anchor="middle" pointer-events="none" font-size="8px" fill="#000000" x="61.209630388086396" y="3" transform="rotate(180 61.209630388086396 0)" font-family="sans-serif">HAS_PRODUCT</text></g><g class="relationship" transform="translate(-104.27778554968418 150.68324974595055) rotate(259.31422493027014)"><path class="outline" fill="#A5ABB6" stroke="none" d="M 25 0.5 L 25.61362242316671 0.5 L 25.61362242316671 -0.5 L 25 -0.5 Z M 88.0745599231667 0.5 L 88.68818234633342 0.5 L 88.68818234633342 3.5 L 95.68818234633342 0 L 88.68818234633342 -3.5 L 88.68818234633342 -0.5 L 88.0745599231667 -0.5 Z"/><text text-anchor="middle" pointer-events="none" font-size="8px" fill="#000000" x="56.84409117316671" y="3" transform="rotate(180 56.84409117316671 0)" font-family="sans-serif">HAS_SUBCA…</text></g><g class="relationship" transform="translate(-104.27778554968418 150.68324974595055) rotate(418.14858955591194)"><path class="outline" fill="#A5ABB6" stroke="none" d="M 25 0.5 L 26.73306258906156 0.5 L 26.73306258906156 -0.5 L 25 -0.5 Z M 89.19400008906156 0.5 L 90.92706267812312 0.5 L 90.92706267812312 3.5 L 97.92706267812312 0 L 90.92706267812312 -3.5 L 90.92706267812312 -0.5 L 89.19400008906156 -0.5 Z"/><text text-anchor="middle" pointer-events="none" font-size="8px" fill="#000000" x="57.96353133906156" y="3" font-family="sans-serif">HAS_SUBCA…</text></g><g class="relationship" transform="translate(-39.40694021879141 255.0998967172386) rotate(357.5234619702792)"><path class="outline" fill="#A5ABB6" stroke="none" d="M 25 0.5 L 26.07150716151029 0.5 L 26.07150716151029 -0.5 L 25 -0.5 Z M 89.86056966151028 0.5 L 90.93207682302058 0.5 L 90.93207682302058 3.5 L 97.93207682302058 0 L 90.93207682302058 -3.5 L 90.93207682302058 -0.5 L 89.86056966151028 -0.5 Z"/><text text-anchor="middle" pointer-events="none" font-size="8px" fill="#000000" x="57.96603841151029" y="3" font-family="sans-serif">HAS_PRODU…</text></g><g class="relationship" transform="translate(-39.40694021879141 255.0998967172386) rotate(442.00666414092757)"><path class="outline" fill="#A5ABB6" stroke="none" d="M 25 0.5 L 27.51012179655111 0.5 L 27.51012179655111 -0.5 L 25 -0.5 Z M 79.74449679655112 0.5 L 82.25461859310222 0.5 L 82.25461859310222 3.5 L 89.25461859310222 0 L 82.25461859310222 -3.5 L 82.25461859310222 -0.5 L 79.74449679655112 -0.5 Z"/><text text-anchor="middle" pointer-events="none" font-size="8px" fill="#000000" x="53.62730929655111" y="3" font-family="sans-serif">HAS_PRO…</text></g><g class="relationship" transform="translate(-126.65610869319907 32.08793781775394) rotate(523.5023490460815)"><path class="outline" fill="#A5ABB6" stroke="none" d="M 25 0.5 L 25.419597066058707 0.5 L 25.419597066058707 -0.5 L 25 -0.5 Z M 77.65397206605871 0.5 L 78.07356913211741 0.5 L 78.07356913211741 3.5 L 85.07356913211741 0 L 78.07356913211741 -3.5 L 78.07356913211741 -0.5 L 77.65397206605871 -0.5 Z"/><text text-anchor="middle" pointer-events="none" font-size="8px" fill="#000000" x="51.53678456605871" y="3" transform="rotate(180 51.53678456605871 0)" font-family="sans-serif">HAS_PRO…</text></g><g class="relationship" transform="translate(-126.65610869319907 32.08793781775394) rotate(244.98476142816565)"><path class="outline" fill="#A5ABB6" stroke="none" d="M 25 0.5 L 26.467752153926035 0.5 L 26.467752153926035 -0.5 L 25 -0.5 Z M 78.70212715392603 0.5 L 80.16987930785207 0.5 L 80.16987930785207 3.5 L 87.16987930785207 0 L 80.16987930785207 -3.5 L 80.16987930785207 -0.5 L 78.70212715392603 -0.5 Z"/><text text-anchor="middle" pointer-events="none" font-size="8px" fill="#000000" x="52.584939653926035" y="3" transform="rotate(180 52.584939653926035 0)" font-family="sans-serif">HAS_PRO…</text></g><g class="relationship" transform="translate(-126.65610869319907 32.08793781775394) rotate(302.7734340135808)"><path class="outline" fill="#A5ABB6" stroke="none" d="M 25 0.5 L 25.659190500846407 0.5 L 25.659190500846407 -0.5 L 25 -0.5 Z M 83.6709092508464 0.5 L 84.33009975169281 0.5 L 84.33009975169281 3.5 L 91.33009975169281 0 L 84.33009975169281 -3.5 L 84.33009975169281 -0.5 L 83.6709092508464 -0.5 Z"/><text text-anchor="middle" pointer-events="none" font-size="8px" fill="#000000" x="54.66504987584641" y="3" font-family="sans-serif">HAS_PROD…</text></g></g><g class="layer nodes"><g class="node" transform="translate(282.7061503003703,359.71265673243465)"><circle class="outline" cx="0" cy="0" r="25" fill="#F79767" stroke="#f36924" stroke-width="2px"/><text text-anchor="middle" pointer-events="none" font-family="sans-serif" dy="1.5625" font-size="25" fill="#FFFFFF"/><text text-anchor="middle" pointer-events="none" y="5" font-size="10px" fill="#FFFFFF" font-family="sans-serif"> ELECT…</text></g><g class="node" transform="translate(286.5414704417824,245.9668015172021)"><circle class="outline" cx="0" cy="0" r="25" fill="#F79767" stroke="#f36924" stroke-width="2px"/><text text-anchor="middle" pointer-events="none" font-family="sans-serif" dy="1.5625" font-size="25" fill="#FFFFFF"/><text text-anchor="middle" pointer-events="none" y="5" font-size="10px" fill="#FFFFFF" font-family="sans-serif"> COMPU…</text></g><g class="node" transform="translate(389.209054568387,190.23330925410073)"><circle class="outline" cx="0" cy="0" r="25" fill="#F79767" stroke="#f36924" stroke-width="2px"/><text text-anchor="middle" pointer-events="none" font-family="sans-serif" dy="1.5625" font-size="25" fill="#FFFFFF"/><text text-anchor="middle" pointer-events="none" y="5" font-size="10px" fill="#FFFFFF" font-family="sans-serif"> DESKT…</text></g><g class="node" transform="translate(187.09174654070586,182.55169338097483)"><circle class="outline" cx="0" cy="0" r="25" fill="#F79767" stroke="#f36924" stroke-width="2px"/><text text-anchor="middle" pointer-events="none" font-family="sans-serif" dy="1.5625" font-size="25" fill="#FFFFFF"/><text text-anchor="middle" pointer-events="none" y="5" font-size="10px" fill="#FFFFFF" font-family="sans-serif"> LAPTOPS</text></g><g class="node" transform="translate(-104.27778554968418,150.68324974595055)"><circle class="outline" cx="0" cy="0" r="25" fill="#F79767" stroke="#f36924" stroke-width="2px"/><text text-anchor="middle" pointer-events="none" font-family="sans-serif" dy="1.5625" font-size="25" fill="#FFFFFF"/><text text-anchor="middle" pointer-events="none" y="5" font-size="10px" fill="#FFFFFF" font-family="sans-serif"> BOOKS</text></g><g class="node" transform="translate(-39.40694021879141,255.0998967172386)"><circle class="outline" cx="0" cy="0" r="25" fill="#F79767" stroke="#f36924" stroke-width="2px"/><text text-anchor="middle" pointer-events="none" font-family="sans-serif" dy="1.5625" font-size="25" fill="#FFFFFF"/><text text-anchor="middle" pointer-events="none" y="5" font-size="10px" fill="#FFFFFF" font-family="sans-serif"> EBOOKS</text></g><g class="node" transform="translate(-126.65610869319907,32.08793781775394)"><circle class="outline" cx="0" cy="0" r="25" fill="#F79767" stroke="#f36924" stroke-width="2px"/><text text-anchor="middle" pointer-events="none" font-family="sans-serif" dy="1.5625" font-size="25" fill="#FFFFFF"/><text text-anchor="middle" pointer-events="none" y="5" font-size="10px" fill="#FFFFFF" font-family="sans-serif"> PAPER…</text></g><g class="node" transform="translate(271.7438834112339,100.50147865163363)"><circle class="outline" cx="0" cy="0" r="25" fill="#F79767" stroke="#f36924" stroke-width="2px"/><text text-anchor="middle" pointer-events="none" font-family="sans-serif" dy="1.5625" font-size="25" fill="#FFFFFF"/><text text-anchor="middle" pointer-events="none" y="5" font-size="10px" fill="#FFFFFF" font-family="sans-serif"> Netbook</text></g><g class="node" transform="translate(214.97966838828867,52.79534152817078)"><circle class="outline" cx="0" cy="0" r="25" fill="#F79767" stroke="#f36924" stroke-width="2px"/><text text-anchor="middle" pointer-events="none" font-family="sans-serif" dy="1.5625" font-size="25" fill="#FFFFFF"/><text text-anchor="middle" pointer-events="none" font-family="sans-serif" dy="1.5625" font-size="25" fill="#FFFFFF"/><text text-anchor="middle" pointer-events="none" y="0" font-size="10px" fill="#FFFFFF" font-family="sans-serif"> Business</text><text text-anchor="middle" pointer-events="none" y="10" font-size="10px" fill="#FFFFFF" font-family="sans-serif"> laptop</text></g><g class="node" transform="translate(493.32368715956585,176.47367696926187)"><circle class="outline" cx="0" cy="0" r="25" fill="#F79767" stroke="#f36924" stroke-width="2px"/><text text-anchor="middle" pointer-events="none" font-family="sans-serif" dy="1.5625" font-size="25" fill="#FFFFFF"/><text text-anchor="middle" pointer-events="none" font-family="sans-serif" dy="1.5625" font-size="25" fill="#FFFFFF"/><text text-anchor="middle" pointer-events="none" y="0" font-size="10px" fill="#FFFFFF" font-family="sans-serif"> Gaming</text><text text-anchor="middle" pointer-events="none" y="10" font-size="10px" fill="#FFFFFF" font-family="sans-serif"> rigs</text></g><g class="node" transform="translate(147.214029936591,59.429344563658475)"><circle class="outline" cx="0" cy="0" r="25" fill="#57C7E3" stroke="#23b3d7" stroke-width="2px"/><text text-anchor="middle" pointer-events="none" font-family="sans-serif" dy="1.5625" font-size="25" fill="#FFFFFF"/><text text-anchor="middle" pointer-events="none" y="5" font-size="10px" fill="#FFFFFF" font-family="sans-serif"> DELL</text></g><g class="node" transform="translate(91.676941428197,120.2175461664761)"><circle class="outline" cx="0" cy="0" r="25" fill="#57C7E3" stroke="#23b3d7" stroke-width="2px"/><text text-anchor="middle" pointer-events="none" font-family="sans-serif" dy="1.5625" font-size="25" fill="#FFFFFF"/><text text-anchor="middle" pointer-events="none" y="5" font-size="10px" fill="#FFFFFF" font-family="sans-serif"> MAC</text></g><g class="node" transform="translate(421.30239698645937,71.84781478226049)"><circle class="outline" cx="0" cy="0" r="25" fill="#57C7E3" stroke="#23b3d7" stroke-width="2px"/><text text-anchor="middle" pointer-events="none" font-family="sans-serif" dy="1.5625" font-size="25" fill="#FFFFFF"/><text text-anchor="middle" pointer-events="none" y="5" font-size="10px" fill="#FFFFFF" font-family="sans-serif"> AlienWare</text></g><g class="node" transform="translate(-63.68448386843244,-65.7244671990313)"><circle class="outline" cx="0" cy="0" r="25" fill="#57C7E3" stroke="#23b3d7" stroke-width="2px"/><text text-anchor="middle" pointer-events="none" font-family="sans-serif" dy="1.5625" font-size="25" fill="#FFFFFF"/><text text-anchor="middle" pointer-events="none" font-family="sans-serif" dy="1.5625" font-size="25" fill="#FFFFFF"/><text text-anchor="middle" pointer-events="none" y="0" font-size="10px" fill="#FFFFFF" font-family="sans-serif"> Harry</text><text text-anchor="middle" pointer-events="none" y="10" font-size="10px" fill="#FFFFFF" font-family="sans-serif"> potter</text></g><g class="node" transform="translate(-23.518930521087796,368.24444593504643)"><circle class="outline" cx="0" cy="0" r="25" fill="#57C7E3" stroke="#23b3d7" stroke-width="2px"/><text text-anchor="middle" pointer-events="none" font-family="sans-serif" dy="1.5625" font-size="25" fill="#FFFFFF"/><text text-anchor="middle" pointer-events="none" font-family="sans-serif" dy="1.5625" font-size="25" fill="#FFFFFF"/><text text-anchor="middle" pointer-events="none" y="0" font-size="10px" fill="#FFFFFF" font-family="sans-serif"> Neorj</text><text text-anchor="middle" pointer-events="none" y="10" font-size="10px" fill="#FFFFFF" font-family="sans-serif"> Ebook</text></g><g class="node" transform="translate(-174.08818436889308,-69.55988567607861)"><circle class="outline" cx="0" cy="0" r="25" fill="#57C7E3" stroke="#23b3d7" stroke-width="2px"/><text text-anchor="middle" pointer-events="none" font-family="sans-serif" dy="1.5625" font-size="25" fill="#FFFFFF"/><text text-anchor="middle" pointer-events="none" font-family="sans-serif" dy="1.5625" font-size="25" fill="#FFFFFF"/><text text-anchor="middle" pointer-events="none" font-family="sans-serif" dy="1.5625" font-size="25" fill="#FFFFFF"/><text text-anchor="middle" pointer-events="none" font-family="sans-serif" dy="1.5625" font-size="25" fill="#FFFFFF"/><text text-anchor="middle" pointer-events="none" y="-10" font-size="10px" fill="#FFFFFF" font-family="sans-serif"> Don</text><text text-anchor="middle" pointer-events="none" y="0" font-size="10px" fill="#FFFFFF" font-family="sans-serif"> Quixote</text><text text-anchor="middle" pointer-events="none" y="10" font-size="10px" fill="#FFFFFF" font-family="sans-serif"> by Miguel</text><text text-anchor="middle" pointer-events="none" y="20" font-size="10px" fill="#FFFFFF" font-family="sans-serif"> de</text></g><g class="node" transform="translate(-232.1981006975101,63.34619345118578)"><circle class="outline" cx="0" cy="0" r="25" fill="#57C7E3" stroke="#23b3d7" stroke-width="2px"/><text text-anchor="middle" pointer-events="none" font-family="sans-serif" dy="1.5625" font-size="25" fill="#FFFFFF"/><text text-anchor="middle" pointer-events="none" font-family="sans-serif" dy="1.5625" font-size="25" fill="#FFFFFF"/><text text-anchor="middle" pointer-events="none" font-family="sans-serif" dy="1.5625" font-size="25" fill="#FFFFFF"/><text text-anchor="middle" pointer-events="none" y="-5" font-size="10px" fill="#FFFFFF" font-family="sans-serif"> Ulysses</text><text text-anchor="middle" pointer-events="none" y="5" font-size="10px" fill="#FFFFFF" font-family="sans-serif"> by James</text><text text-anchor="middle" pointer-events="none" y="15" font-size="10px" fill="#FFFFFF" font-family="sans-serif"> Joyce</text></g><g class="node" transform="translate(77.80628589129984,-247.4235547296371)"><circle class="outline" cx="0" cy="0" r="25" fill="#F79767" stroke="#f36924" stroke-width="2px"/><text text-anchor="middle" pointer-events="none" font-family="sans-serif" dy="1.5625" font-size="25" fill="#FFFFFF"/><text text-anchor="middle" pointer-events="none" y="5" font-size="10px" fill="#FFFFFF" font-family="sans-serif"> testcate…</text></g><g class="node" transform="translate(83.4103179785699,249.78796666275582)"><circle class="outline" cx="0" cy="0" r="25" fill="#57C7E3" stroke="#23b3d7" stroke-width="2px"/><text text-anchor="middle" pointer-events="none" font-family="sans-serif" dy="1.5625" font-size="25" fill="#FFFFFF"/><text text-anchor="middle" pointer-events="none" y="5" font-size="10px" fill="#FFFFFF" font-family="sans-serif"> test</text></g><g class="node" transform="translate(-195.41933423833837,362.73833702827886)"><circle class="outline" cx="0" cy="0" r="25" fill="#F79767" stroke="#f36924" stroke-width="2px"/><text text-anchor="middle" pointer-events="none" font-family="sans-serif" dy="1.5625" font-size="25" fill="#FFFFFF"/><text text-anchor="middle" pointer-events="none" y="5" font-size="10px" fill="#FFFFFF" font-family="sans-serif"> testcate…</text></g></g></svg>